<?xml version="1.0" encoding="UTF-8"?>
<svg xmlns="http://www.w3.org/2000/svg" xmlns:xlink="http://www.w3.org/1999/xlink" width="16px" height="16px" viewBox="0 0 16 16" version="1.1">
<g id="surface1">
<path style=" stroke:none;fill-rule:nonzero;fill:rgb(0%,0%,0%);fill-opacity:1;" d="M 15.882812 15.316406 L 11.882812 11.316406 C 11.882812 11.316406 11.878906 11.316406 11.875 11.3125 C 12.945312 10.113281 13.601562 8.535156 13.601562 6.800781 C 13.601562 3.042969 10.554688 0 6.800781 0 C 3.042969 0 0 3.042969 0 6.800781 C 0 10.554688 3.042969 13.601562 6.800781 13.601562 C 8.535156 13.601562 10.113281 12.945312 11.3125 11.875 C 11.316406 11.878906 11.316406 11.878906 11.316406 11.882812 L 15.316406 15.882812 C 15.394531 15.960938 15.496094 16 15.601562 16 C 15.703125 16 15.804688 15.960938 15.882812 15.882812 C 16.039062 15.726562 16.039062 15.472656 15.882812 15.316406 Z M 6.800781 12.800781 C 3.492188 12.800781 0.800781 10.109375 0.800781 6.800781 C 0.800781 3.492188 3.492188 0.800781 6.800781 0.800781 C 10.109375 0.800781 12.800781 3.492188 12.800781 6.800781 C 12.800781 10.109375 10.109375 12.800781 6.800781 12.800781 Z M 6.800781 12.800781 "/>
</g>
</svg>
